<?xml version="1.0" encoding="UTF-8"?>
<svg id="Calque_2" data-name="Calque 2" xmlns="http://www.w3.org/2000/svg" viewBox="0 0 355.01 355.01">
  <defs>
    <style>
      .cls-1 {
        fill: #1d1d1b;
      }

      .cls-2 {
        fill: #fff;
      }

      .cls-3 {
        fill: none;
        stroke: #fff;
        stroke-miterlimit: 10;
        stroke-width: 4px;
      }
    </style>
  </defs>
  <g id="Calque_2-2" data-name="Calque 2">
    <circle id="Ellipse_Milieu" data-name="Ellipse Milieu" class="cls-2" cx="177.5" cy="177.5" r="177.5"/>
    <circle id="Elipse_Petite" data-name="Elipse Petite" class="cls-1" cx="177.52" cy="177.5" r="162.65"/>
    <path id="Roue_logo" data-name="Roue logo" class="cls-2" d="M31.15,176.46c0,80.13,64.96,145.09,145.09,145.09s145.09-64.96,145.09-145.09S256.37,31.37,176.24,31.37c-40.67,0-73.64,20.91-82.52,27.1-29.33,20.45-45.69,47.51-52.85,65.68-8.83,22.39-9.72,45.07-9.72,52.31Z"/>
    <path id="Branches" class="cls-1" d="M73.86,79.36c11.44-11.34,7.76-8.13,15.35-13.81l43.32,65.77s1.28,1.85,1.85,3.34c.75,1.96,1.14,4.5-.27,6.84l-12.34,14.62c-1.9,2.77-9,.49-9,.49-8.45-.04-74-20.06-74-20.06,3.82-12.49,10.75-24.67,10.75-24.67,4.11-7.4,12.9-21.16,24.34-32.5Z"/>
    <path id="Branches-2" data-name="Branches" class="cls-1" d="M208.39,35.69c15.79,3.16,11.07,1.9,20.03,5.02l-30.37,72.66s-.82,2.09-1.74,3.4c-1.21,1.71-3.1,3.46-5.82,3.59l-19.02-2.07c-3.36-.03-5.43-7.19-5.43-7.19-4.69-7.03-24.68-72.59-24.68-72.59,12.5-3.81,26.46-4.86,26.46-4.86,8.44-.72,24.76-1.11,40.56,2.04Z"/>
    <path id="Branches-3" data-name="Branches" class="cls-1" d="M318.03,130.13c5.44,15.16,4.08,10.46,6.02,19.75l-77.92,11.43s-2.21.38-3.8.26c-2.09-.15-4.56-.87-6.08-3.14l-8.03-17.36c-1.71-2.89,3.36-8.36,3.36-8.36,3.61-7.64,49.49-58.57,49.49-58.57,9.7,8.74,17.8,20.17,17.8,20.17,4.97,6.86,13.72,20.65,19.16,35.81Z"/>
    <path id="Branches-4" data-name="Branches" class="cls-1" d="M297.35,267.16c-9.95,12.66-6.7,9.02-13.53,15.6l-51.1-59.93s-1.5-1.67-2.24-3.08c-.98-1.85-1.69-4.33-.57-6.82l10.44-16.03c1.55-2.98,8.87-1.59,8.87-1.59,8.39-1,75.91,10.79,75.91,10.79-2.25,12.87-7.63,25.8-7.63,25.8-3.17,7.85-10.2,22.59-20.15,35.26Z"/>
    <path id="Branches-5" data-name="Branches" class="cls-1" d="M157.28,325.89c-15.89-2.62-11.13-1.52-20.19-4.34l27.88-73.66s.74-2.12,1.62-3.45c1.15-1.75,2.98-3.57,5.7-3.79l19.08,1.42c3.36-.08,5.67,7,5.67,7,4.92,6.87,27.14,71.71,27.14,71.71-12.36,4.23-26.28,5.75-26.28,5.75-8.41,1.01-24.71,1.96-40.6-.66Z"/>
    <path class="cls-1" d="M139.35,156.03c-1.62,1.5-2.4,3.79-2.28,6s1.08,4.32,2.47,6.03c.6.74,1.3,1.43,2.15,1.87,1.76.9,3.98.55,5.63-.54s2.77-2.83,3.52-4.66c.88-2.18,1.28-4.63.64-6.89s-2.44-4.27-4.74-4.73c-2.25-.45-5.76,1.42-7.39,2.93Z"/>
    <path class="cls-1" d="M164.93,142.65c-.41,1.13-.76,2.3-.78,3.5-.02,1.2.31,2.45,1.12,3.33,1.19,1.29,3.09,1.57,4.84,1.72,1.87.16,3.78.27,5.6-.18s3.57-1.55,4.37-3.25c.54-1.14.62-2.45.49-3.71-.09-.88-.3-1.78-.8-2.51-.49-.71-1.22-1.21-1.93-1.69-1.37-.93-2.77-1.84-4.33-2.43-.97-.37-2.36-1.16-3.42-1.05-2.66.28-4.38,4.13-5.15,6.25Z"/>
    <path class="cls-1" d="M199.7,149.63c-8.82,4.56-2.82,18.31,6.52,15.77,12.33-3.9,5.24-20.43-6.11-15.96l-.41.19Z"/>
    <path class="cls-1" d="M204.56,176.61c-10.13,6.99,3.1,20.39,11.98,13.82,8.82-7.11-3.14-18.87-11.6-14.03l-.38.22Z"/>
    <path class="cls-1" d="M194.13,199.12c-6.58.48-11.34,11.33-4.03,14.43,5.79,1.52,15.6-3.01,14.53-9.85-1.12-2.36-3.86-2.84-6.13-3.82-1.67-.66-3.47-1.11-5.06-.74"/>
    <path class="cls-1" d="M166.17,206.09c-7.52,6.37,3.76,17.24,10.91,11.67,7.27-5.94-3.93-16.26-10.57-11.9l-.34.23Z"/>
    <path class="cls-1" d="M136.45,186.56c-5.12,10.98,13.78,20.05,18.01,8.02,2.78-9.74-12.53-17.66-17.81-8.41l-.2.38Z"/>
    <path class="cls-1" d="M171.63,159.89c-17.53,6.23-11.08,37.62,8.24,33.47,19.14-5.51,11.98-38.94-7.84-33.61l-.4.14Z"/>
    <path id="Branches-6" data-name="Branches" class="cls-1" d="M39.72,224.75c-4.94-15.33-3.74-10.59-5.38-19.94l78.25-8.91s2.22-.31,3.81-.14c2.09.22,4.53,1.02,5.98,3.33l7.46,17.61c1.61,2.95-3.63,8.25-3.63,8.25-3.86,7.52-51.35,56.94-51.35,56.94-9.42-9.05-17.14-20.74-17.14-20.74-4.75-7.01-13.04-21.08-17.99-36.41Z"/>
    <circle id="Elipse_Petite-2" data-name="Elipse Petite" class="cls-3" cx="176.52" cy="177.15" r="145.78"/>
  </g>
</svg>